<?xml version="1.0" encoding="UTF-8"?><svg id="_レイヤー_1" xmlns="http://www.w3.org/2000/svg" width="250" height="68" viewBox="0 0 250 68"><defs><style>.cls-1{fill:#fff;}.cls-2{fill:none;stroke:#fff;stroke-miterlimit:10;}.cls-3{fill:#e8bb5a;}</style></defs><g id="_グループ_11"><g id="_グループ_12"><path id="_パス_80" class="cls-1" d="m.91,53.748c-.279-.006-.504-.231-.51-.51,0-.292.363-.62.728-.948,5.103-4.486,12.354-10.168,12.354-17.857,0-5.758-3.171-6.924-4.992-6.924-1.413-.111-2.811.363-3.864,1.312-.884.964-1.423,2.196-1.53,3.5,0,.365-.109.692-.474.692-.182,0-.292-.255-.328-.692-.037-.328-.219-3.353-.219-4.41,0-.328.037-.473.438-.729,2.051-1.001,4.319-1.477,6.6-1.385,6.415,0,9.147,3.5,9.147,7.763,0,7.07-7.834,13.228-12.537,16.982-.181.146-.109.256.073.256h2.475c.62,0,4.92-.037,6.268-.219,2.515-.292,3.717-1.531,4.156-3.243.108-.437.217-.583.436-.583.255,0,.292.328.292.692-.24,1.758-.593,3.499-1.057,5.212-.292.984-.875,1.093-3.171,1.093l-14.285-.002Z"/><path id="_パス_81" class="cls-1" d="m32.93,54.367c-7.179,0-9.147-8.309-9.147-13.484,0-8.491,2.989-15.087,9.73-15.087,7.216,0,9.148,7.653,9.148,13.447,0,9.038-3.461,15.124-9.731,15.124m-.181-26.931c-2.734,0-4.7,3.754-4.7,12.062,0,6.3,1.567,13.229,5.576,13.229,2.952,0,4.774-4.993,4.774-12.063,0-6.3-1.676-13.228-5.648-13.228"/><path id="_パス_82" class="cls-1" d="m45.976,53.748c-.279-.006-.504-.231-.51-.51,0-.292.364-.62.729-.948,5.1-4.482,12.354-10.168,12.354-17.857,0-5.758-3.171-6.924-4.992-6.924-1.413-.111-2.811.363-3.864,1.312-.885.964-1.423,2.196-1.531,3.5,0,.365-.109.692-.474.692-.182,0-.291-.255-.328-.692-.036-.328-.218-3.353-.218-4.41,0-.328.037-.473.437-.729,2.051-1.001,4.319-1.477,6.6-1.385,6.414,0,9.147,3.5,9.147,7.763,0,7.07-7.835,13.228-12.536,16.982-.182.146-.109.256.073.256h2.479c.62,0,4.92-.037,6.268-.219,2.515-.292,3.717-1.531,4.155-3.243.109-.437.218-.583.437-.583.255,0,.292.328.292.692-.24,1.758-.593,3.499-1.057,5.212-.291.984-.874,1.093-3.171,1.093l-14.29-.002Z"/><path id="_パス_83" class="cls-1" d="m70.022,53.711c-.62-.328-.692-.656-.692-1.422-.042-1.532.007-3.066.146-4.592.073-.365.182-.656.4-.656.255,0,.328.218.328.619,0,3.9,2.405,4.884,4.956,4.884,2.915,0,6.014-1.932,6.014-6.67,0-5.831-6.342-8.236-9.22-8.637-.438-.073-.692-.255-.656-.729l.837-9.621c.037-.365.292-.474.693-.474h8.929c.682.019,1.364-.017,2.04-.109.4-.036.62-.146.729-.146.292,0,.365.146.365.692-.047,1.564-.205,3.123-.473,4.665-.037.219-.146.437-.4.437-.219,0-.292-.218-.292-.51,0-1.02-.255-1.967-3.207-1.967h-6.636l-.51,4.446c5.43.874,12.062,3.862,12.062,10.2,0,4.847-3.535,10.24-11.99,10.24-1.175.018-2.341-.205-3.426-.656"/><path id="_パス_84" class="cls-1" d="m90.618,51.524c-.017-1.21.951-2.205,2.162-2.222.02,0,.041,0,.061,0,1.158-.068,2.151.816,2.219,1.973.003.047.004.093.004.14.062,1.225-.88,2.267-2.105,2.33-.051.003-.103.003-.154.002-1.173.036-2.152-.885-2.188-2.058-.002-.055-.001-.11.001-.165"/><path id="_パス_85" class="cls-1" d="m99.295,46.568c-.437,0-.911-.146-.911-.547.042-.361.21-.696.473-.947.255-.292,13.848-18.258,14.14-18.622.292-.328.583-.656.948-.656.328,0,.437.255.437.619,0,.547-.036,3.1-.036,5.467v11.844h2.806c.575-.032,1.141-.155,1.677-.365.182,0,.328.146.328.437-.104.791-.313,1.564-.62,2.3-.182.328-.364.473-.984.473h-3.207c0,1.167-.037,2.807.109,4.41.109,1.129.328,1.786,1.531,2.04.541.097,1.09.146,1.64.146.175-.008.323.127.331.302,0,.021,0,.041-.003.062,0,.255-.182.328-.583.328-2.041,0-4.373-.109-5.138-.109-1.02,0-2.988.109-4.993.109-.4,0-.583-.073-.583-.328s.109-.364.291-.364c.328,0,1.13-.037,1.713-.109,1.385-.146,1.641-.948,1.713-2.077.146-1.6.109-3.244.109-4.41l-11.188-.003Zm11.188-14.1h-.109c-.839,1.2-6.888,9.621-8.127,11.261h8.236v-11.261Z"/><path id="_パス_86" class="cls-1" d="m121.986,53.631c-.146-.087-.146-.233,0-.5l13.292-21.566c.146-.233.262-.233.408-.145l1.05.641c.116.059.146.176.029.35l-13.38,21.717c-.117.2-.233.262-.379.174l-1.02-.671Z"/><path id="_パス_87" class="cls-1" d="m146.789,36.984v-4.774c0-.875,0-1.312-.547-1.312-.692,0-3.426,1.421-4.227,1.749-.16.077-.333.127-.51.146-.176-.053-.296-.216-.292-.4.028-.221.165-.413.365-.51.146-.073,7.143-4.665,8.418-5.612.27-.236.596-.399.947-.474.328,0,.438.4.438.765,0,.292-.219,3.9-.219,9.475v6.742c0,3.5,0,6.6.146,8.2.109,1.166.291,1.712,1.458,1.967.797.116,1.6.189,2.405.219.186.004.333.157.329.343,0,.007,0,.014-.001.021,0,.256-.183.328-.584.328-2.77,0-5.1-.109-6.086-.109-.838,0-3.9.109-6.232.109-.4,0-.619-.072-.619-.328s.145-.364.291-.364c.976-.023,1.95-.108,2.915-.255,1.167-.255,1.348-.765,1.458-1.931.146-1.6.218-4.7.182-8.2l-.035-5.795Z"/><path id="_パス_88" class="cls-1" d="m176.747,26.416c.692,0,.875.109.875.292-.024.238-.112.465-.255.656-3.025,4.3-8.71,18.769-9.257,23.433-.037.449-.037.9,0,1.349,0,.729-2.952,2.222-4.592,2.222-.4,0-.51-.109-.51-.437.013-.508.099-1.011.255-1.495,1.02-3.5,5.685-14.249,10.714-22.667h-9.439c-1.179-.08-2.36.146-3.426.656-.643.566-1.067,1.34-1.2,2.186-.036.292-.146.473-.364.473-.256,0-.292-.182-.292-.546,0-1.348.547-5.612.547-5.976s.145-.511.364-.511c1.62.314,3.271.437,4.92.365h11.66Z"/><path id="_パス_89" class="cls-1" d="m147.961,60.04l-1.587.043c-.617.021-.873.074-1.033.309-.08.114-.142.24-.181.373-.021.085-.053.128-.117.128s-.1-.054-.1-.171c0-.17.2-1.14.223-1.225.032-.139.064-.2.128-.2.148.057.302.1.459.128.309.032.713.054,1.064.054h4.219c.246,0,.492-.018.735-.054.095-.023.191-.04.288-.052.074,0,.085.064.085.223,0,.223-.032.958-.032,1.235-.01.107-.032.17-.1.17-.085,0-.106-.054-.117-.213l-.01-.117c-.021-.277-.309-.575-1.257-.6l-1.343-.032v4.368c0,.98,0,1.822.054,2.279.032.3.1.533.415.576.18.025.361.039.543.042.117,0,.17.032.17.085,0,.074-.085.107-.2.107-.7,0-1.375-.032-1.673-.032-.245,0-.916.032-1.342.032-.138,0-.213-.032-.213-.107,0-.053.043-.085.17-.085.129,0,.257-.014.383-.042.213-.043.278-.277.309-.586.053-.448.053-1.289.053-2.269l.007-4.367Z"/><path id="_パス_90" class="cls-1" d="m158.863,63.601c.021,0,.054-.011.054-.064v-.192c0-1.374-.011-1.7-.021-1.992-.021-.309-.107-.405-.405-.49-.119-.024-.241-.034-.362-.032-.106,0-.16-.032-.16-.1s.064-.086.2-.086c.5,0,1.161.022,1.406.022.223,0,.841-.022,1.2-.022.139,0,.2.022.2.086s-.064.1-.17.1c-.093.002-.186.013-.277.032-.245.043-.319.17-.341.49-.021.287-.021.542-.021,1.917v1.6c0,.831,0,1.545.043,1.939.032.256.085.426.373.468.159.022.319.033.479.032.1,0,.149.054.149.1,0,.064-.074.1-.192.1-.607,0-1.225-.032-1.48-.032-.213,0-.874.032-1.235.032-.128,0-.2-.032-.2-.1,0-.042.042-.1.149-.1.115.003.229-.008.341-.032.192-.042.245-.213.277-.48.043-.383.043-1.076.043-1.906v-.692c-.002-.029-.025-.052-.054-.053h-3.537c-.032,0-.064.01-.064.053v.692c0,.831.011,1.523.054,1.918.032.256.085.426.362.468.159.022.319.032.48.032.107,0,.149.054.149.1,0,.064-.074.1-.192.1-.607,0-1.257-.032-1.523-.032-.213,0-.831.032-1.2.032-.117,0-.181-.032-.181-.1,0-.042.032-.1.148-.1.111.003.222-.008.33-.032.192-.042.245-.213.277-.48.043-.383.043-1.1.043-1.928v-1.6c0-1.375,0-1.63-.011-1.917-.021-.309-.106-.405-.405-.49-.122-.024-.247-.035-.372-.032-.1,0-.16-.032-.16-.1s.074-.086.2-.086c.5,0,1.119.022,1.375.022.223,0,.874-.022,1.246-.022.128,0,.192.022.192.086s-.054.1-.17.1c-.09.002-.179.013-.267.032-.255.043-.33.17-.351.49-.021.287-.021.617-.021,1.992v.192c-.005.031.016.059.047.064.006,0,.012,0,.017,0h3.538Z"/><path id="_パス_91" class="cls-1" d="m162.875,63.268c0-1.375.011-1.63-.011-1.917-.021-.32-.106-.405-.4-.49-.119-.024-.241-.034-.362-.032-.106,0-.16-.032-.16-.1s.064-.086.2-.086c.5,0,1.129.022,1.406.022.235,0,.863-.022,1.2-.022.138,0,.2.022.2.086s-.054.1-.15.1c-.093,0-.186.011-.277.032-.245.043-.32.17-.341.49-.021.287-.021.542-.021,1.917v1.268c0,1.321.256,1.832.714,2.194.744.524,1.749.476,2.44-.117.472-.629.668-1.423.543-2.2v-1.14c0-1.375-.011-1.63-.021-1.917-.021-.309-.1-.405-.394-.49-.112-.023-.227-.033-.341-.032-.106,0-.16-.032-.16-.1s.064-.086.192-.086c.479,0,1.108.022,1.118.022.107,0,.735-.022,1.1-.022.128,0,.191.022.191.086s-.052.1-.16.1c-.093,0-.186.011-.277.032-.256.043-.319.17-.341.49-.011.287-.021.542-.021,1.917v.97c.125.998-.205,2-.9,2.727-.558.453-1.263.684-1.981.65-.764.054-1.523-.165-2.141-.618-.638-.626-.952-1.512-.852-2.4l.007-1.334Z"/><path id="_パス_92" class="cls-1" d="m170.204,66.815c-.005-.354.278-.645.632-.65.006,0,.012,0,.018,0,.338-.02.628.237.649.575,0,.014.001.028.001.042.018.358-.257.663-.615.681-.015,0-.03.001-.045,0-.343.01-.629-.259-.639-.602,0-.016,0-.032,0-.048"/><path id="_パス_93" class="cls-1" d="m218.692,67.369c-.17-.074-.2-.128-.2-.362,0-.585.042-1.225.052-1.4s.043-.277.128-.277.106.1.106.181c.011.184.045.367.1.543.186.677.824,1.127,1.524,1.076.711.075,1.347-.441,1.422-1.152.002-.021.004-.041.005-.062,0-.523-.16-1.012-1.044-1.7l-.49-.384c-1.172-.916-1.577-1.661-1.577-2.524,0-1.171.98-2.014,2.461-2.014.478-.005.955.056,1.417.182.1.021.149.053.149.128,0,.138-.042.448-.042,1.278,0,.234-.032.319-.117.319s-.107-.064-.107-.192c-.021-.256-.117-.499-.277-.7-.276-.356-.711-.552-1.161-.521-.614-.081-1.177.352-1.258.965-.006.045-.009.09-.009.135,0,.489.245.862,1.129,1.533l.3.223c1.289.97,1.747,1.705,1.747,2.717.013.75-.366,1.452-1,1.853-.51.307-1.099.458-1.694.437-.532.02-1.063-.074-1.555-.278"/><path id="_パス_94" class="cls-1" d="m224.76,63.268c0-1.375.011-1.63-.011-1.917-.021-.32-.106-.405-.4-.49-.119-.024-.241-.034-.362-.032-.106,0-.16-.032-.16-.1s.064-.086.2-.086c.5,0,1.129.022,1.406.022.235,0,.863-.022,1.2-.022.138,0,.2.022.2.086s-.054.1-.15.1c-.093,0-.186.011-.277.032-.246.043-.32.17-.341.49-.021.287-.021.542-.021,1.917v1.268c0,1.321.256,1.832.714,2.194.744.524,1.749.476,2.44-.117.472-.629.668-1.423.543-2.2v-1.14c0-1.375-.011-1.63-.021-1.917-.021-.309-.1-.405-.394-.49-.112-.023-.227-.033-.341-.032-.106,0-.16-.032-.16-.1s.064-.086.192-.086c.479,0,1.108.022,1.118.022.107,0,.735-.022,1.1-.022.128,0,.191.022.191.086s-.052.1-.16.1c-.093,0-.186.011-.277.032-.256.043-.319.17-.341.49-.011.287-.021.542-.021,1.917v.97c.125.998-.205,2-.9,2.727-.558.453-1.263.684-1.981.65-.764.054-1.523-.165-2.141-.618-.638-.626-.952-1.512-.852-2.4l.007-1.334Z"/><path id="_パス_95" class="cls-1" d="m233.498,66.261c.021.7.139.916.319.98.159.047.324.068.49.064.107,0,.16.042.16.1,0,.074-.085.1-.213.1-.607,0-1.045-.032-1.215-.032-.085,0-.532.032-1.011.032-.128,0-.213-.01-.213-.1,0-.054.064-.1.149-.1.143.002.286-.013.426-.043.245-.064.277-.309.288-1.1l.085-5.369c0-.181.064-.309.16-.309.117,0,.245.138.4.3.117.117,1.523,1.555,2.887,2.887.639.629,1.886,1.907,2.024,2.035h.043l-.1-4.027c-.011-.554-.1-.714-.32-.8-.16-.043-.325-.061-.49-.053-.117,0-.15-.043-.15-.1,0-.075.1-.085.234-.085.49,0,.991.021,1.194.021.106,0,.458-.021.916-.021.128,0,.213.01.213.085,0,.053-.054.1-.16.1-.097-.004-.194.007-.288.032-.256.074-.33.234-.341.746l-.107,5.709c0,.2-.075.288-.149.288-.148-.01-.287-.079-.384-.192-.586-.543-1.757-1.661-2.737-2.61-1.023-.98-2.014-2.077-2.195-2.237h-.032l.117,3.699Z"/><path id="_パス_96" class="cls-1" d="m240.795,66.815c-.005-.354.278-.645.632-.65.006,0,.012,0,.018,0,.338-.02.628.237.649.575,0,.014.001.028.001.042.018.358-.257.663-.615.681-.015,0-.03.001-.045,0-.343.01-.629-.259-.639-.602,0-.016,0-.032,0-.048"/><path id="_パス_97" class="cls-1" d="m208.54,53.749c-.279-.006-.504-.231-.51-.51,0-.292.364-.62.729-.948,5.102-4.487,12.353-10.168,12.353-17.857,0-5.758-3.171-6.924-4.992-6.924-1.413-.111-2.811.363-3.864,1.312-.884.965-1.423,2.196-1.531,3.5,0,.365-.109.693-.474.693-.182,0-.291-.255-.328-.693-.036-.328-.218-3.352-.218-4.409,0-.328.037-.473.437-.729,2.051-1.001,4.319-1.477,6.6-1.385,6.414,0,9.147,3.5,9.147,7.763,0,7.07-7.835,13.228-12.537,16.982-.182.146-.109.256.073.256h2.479c.62,0,4.92-.037,6.268-.219,2.515-.292,3.717-1.531,4.155-3.243.109-.438.218-.583.437-.583.255,0,.292.328.292.692-.24,1.758-.593,3.499-1.057,5.212-.291.984-.874,1.093-3.171,1.093l-14.288-.003Z"/><path id="_パス_98" class="cls-1" d="m240.561,54.368c-7.179,0-9.148-8.309-9.148-13.484,0-8.491,2.988-15.087,9.731-15.087,7.216,0,9.147,7.653,9.147,13.447,0,9.038-3.462,15.124-9.73,15.124m-.182-26.931c-2.733,0-4.7,3.754-4.7,12.062,0,6.3,1.567,13.228,5.576,13.228,2.952,0,4.774-4.992,4.774-12.062,0-6.3-1.677-13.228-5.649-13.228"/><path id="_パス_99" class="cls-2" d="m184.898,30.97l8.084,4.667,8.087,4.668-8.084,4.667-8.084,4.667"/><path id="_パス_100" class="cls-3" d="m3.587,12.497L0,6.291,3.587.098l.583.243L.911,6.291l3.26,5.965-.584.241Z"/><path id="_パス_101" class="cls-3" d="m23.271,4.171c-.4.156-.6.6-.725,1.252-.015.114-.057.157-.143.157-.029.001-.058-.004-.085-.015-2.245-.743-4.1-2.353-5.153-4.47-.015.014-.029.043-.043.057-1.435,2.263-3.672,3.901-6.263,4.584-.037.011-.076.015-.114.014-.086,0-.143-.042-.143-.085s.057-.128.171-.185C13.817,3.857,15.527,1.195,15.741.227c.043-.185.043-.227.1-.227.073.006.144.02.214.042.527.114,1.054.256,1.665.427.157.042.243.142.243.227s-.085.171-.285.185c-.102-.004-.204.01-.3.043,1.49,1.703,3.584,2.76,5.839,2.947.143.015.214.072.214.129s-.057.128-.157.17m-.612,3.374h-5.427c-.882,1.103-1.863,2.123-2.932,3.046,1.808-.028,4.057-.156,5.58-.342-.327-.522-.735-.989-1.21-1.381-.07-.051-.116-.127-.128-.213,0-.055.044-.1.099-.101.005,0,.009,0,.014,0,.059.004.117.018.171.042,1.31.584,2.961,1.581,3.2,2.7.016.089.025.179.028.27.034.463-.314.865-.777.899-.008,0-.015.001-.023.001-.318-.013-.59-.233-.669-.541-.132-.455-.303-.899-.512-1.324-2.348.6-4.73,1.061-7.132,1.38-.213.028-.228.113-.27.328-.043.185-.128.284-.213.284s-.186-.1-.271-.313c-.156-.413-.37-1.125-.5-1.551-.014-.042-.023-.085-.029-.128,0-.057.029-.072.113-.072h.1c.62.06,1.242.084,1.865.072.625-.949,1.122-1.977,1.478-3.057h-2.59c-.41-.009-.82.019-1.225.085-.024.004-.048.009-.071.015-.071,0-.114-.043-.156-.114-.055-.12-.102-.244-.142-.37-.004-.024-.009-.048-.015-.071,0-.043.015-.057.057-.057.034.006.068.016.1.029.476.11.963.163,1.452.156h7.64c.093-.001.182-.043.242-.114.242-.313.484-.626.712-.911.021-.037.058-.063.1-.071.053.009.103.034.142.071.37.285,1,.812,1.324,1.082.047.04.078.096.086.157,0,.056-.057.113-.214.113m-2.989-2.32h-4.4c-.414-.01-.829.019-1.238.085-.024.004-.048.009-.071.015-.072,0-.114-.043-.157-.114-.067-.115-.115-.24-.142-.37-.011-.027-.016-.056-.014-.085-.003-.021.012-.04.032-.043.003,0,.006,0,.01,0,.039.006.077.016.114.029.476.11.964.163,1.453.156h2.178c.096.008.191-.029.256-.1.157-.2.413-.555.612-.854.043-.043.072-.072.114-.072.054.009.103.034.142.072.27.227.911.74,1.21,1.025.047.04.078.095.086.156,0,.057-.071.1-.185.1"/><path id="_パス_102" class="cls-3" d="m32.641,10.149c-.243.014-.313-.014-.442.156-.708.954-1.634,1.725-2.7,2.25-.039.023-.083.032-.128.028-.057,0-.086-.028-.086-.072.009-.054.034-.103.072-.142.812-.901,1.413-1.971,1.761-3.132.014-.114.028-.156.071-.156.039.006.077.016.114.029.441.156,1.011.413,1.41.6.108.043.184.141.2.256,0,.086-.072.171-.27.185m3.727-1.344h-5.452c-.41-.009-.819.019-1.224.085-.024.004-.048.009-.071.015-.072,0-.114-.043-.157-.114-.064-.111-.112-.231-.142-.356-.01-.028-.015-.057-.015-.086-.002-.021.013-.04.033-.042.003,0,.006,0,.01,0,.038-.001.076.003.113.014.391.105.795.158,1.2.156.015-1.1.029-2.534.029-3.886,0-.826,0-1.637-.014-2.306-.278.001-.555.035-.826.1h-.043c-.075.002-.144-.043-.171-.114-.065-.111-.113-.231-.143-.356-.009-.028-.014-.057-.014-.086-.003-.02.011-.039.031-.042.004,0,.007,0,.011,0,.039-.002.077.003.114.014.339.094.688.142,1.04.142.01-.484-.004-.969-.043-1.452-.029-.2-.057-.313-.057-.4,0-.057.028-.085.114-.085h.085c.5.057.94.142,1.438.242.185.029.285.129.285.214s-.1.185-.3.242c-.159.032-.269.179-.256.341,0,.185-.015.5-.015.911h1.737c.011-.489-.003-.978-.042-1.466-.028-.2-.057-.313-.057-.4,0-.057.029-.085.114-.085h.085c.5.057.94.142,1.438.242.185.029.284.129.284.214s-.1.185-.3.242c-.159.033-.269.179-.256.341,0,.185-.014.5-.014.911.096.011.19-.033.242-.114.142-.2.27-.484.384-.683.043-.057.072-.086.114-.086.054.007.102.039.129.086.23.272.444.557.64.854.041.048.067.108.072.171,0,.057-.043.1-.186.1h-1.4c0,.683-.014,1.551-.014,2.462,0,1.3.014,2.663.028,3.716.04-.02.074-.049.1-.085.156-.228.37-.669.47-.84.018-.048.063-.081.114-.085.054.006.101.038.128.085.262.322.504.66.726,1.011.029.048.049.101.057.156,0,.057-.028.1-.157.1m-2.69-6.519h-1.747c0,.47,0,1.025-.014,1.637h1.765l-.004-1.637Zm0,1.964h-1.761v1.78h1.765l-.004-1.78Zm-1.761,2.112c0,.769,0,1.494.014,2.121h1.723c.014-.626.014-1.366.028-2.121h-1.765Zm2.933,5.4c-.255-.012-.479-.174-.57-.413-.271-.542-.181-1.13-1.081-1.842-.035-.027-.056-.069-.057-.114.008-.07.072-.121.142-.114.025-.001.05.004.072.015.854.285,1.794.669,2.049,1.381.043.119.068.244.072.37.027.366-.247.684-.613.711-.004,0-.009,0-.013,0m6.7-10.236c-.2.1-.3.186-.3.37-.015.712-.029,2.363-.029,4.143s.014,3.686.042,4.926v.213c0,.641-.156,1.111-1.338,1.324-.228.042-.3-.029-.328-.213-.086-.712-.142-.911-1.41-1.253-.1-.029-.142-.086-.142-.143s.057-.1.156-.1h.029c.256.014.512.042.74.057s.456.014.641.028h.042c.214,0,.271-.113.271-.327.028-1,.042-2.207.042-3.345h-1.929c0,.071-.014.142-.014.213-.041,2.03-1.039,3.921-2.691,5.1-.042.031-.091.051-.143.057-.043.003-.08-.028-.085-.071.012-.068.041-.132.085-.185,1.05-1.562,1.61-3.402,1.609-5.284.042-1.011.057-2.093.057-3.1.023-1.126-.015-2.252-.114-3.373-.057-.271-.042-.357.042-.357.052.005.102.024.143.057.4.214,1.053.555,1.338.726h1.309c.157,0,.214-.028.257-.085.156-.171.342-.37.512-.541s.2-.157.413,0c.3.213.626.455.868.655.09.058.152.151.171.256,0,.085-.071.171-.242.256m-1.58,2.577h-1.835c0,1-.028,1.993-.071,2.777h1.908l-.002-2.777Zm-.041-2.795h-1.794v2.464h1.836c-.015-1.124-.028-2.036-.042-2.464"/><path id="_パス_106" class="cls-3" d="m51.06,12.497l-.584-.242,3.3-5.965-3.3-5.951.584-.242,3.587,6.193-3.587,6.207Z"/></g></g></svg>