<?xml version="1.0" encoding="UTF-8"?><svg id="_レイヤー_1" xmlns="http://www.w3.org/2000/svg" width="272" height="56" viewBox="0 0 272 56"><defs><style>.cls-1{fill:#fff;}.cls-2{fill:#e8bb5a;}</style></defs><g id="_レイヤー_2"><g id="_グループ_22"><g id="_グループ_20"><g id="_グループ_21"><path id="_パス_107" class="cls-1" d="m26.851,52.367c-.067.331-.165.5-.4.5-.078.003-.157-.008-.231-.034-3.891-1.385-7.123-3.924-9.3-9.629h-.4c.033,3.562.1,7.355.2,10.751v.1c0,1.122-.659,1.319-2.572,1.451-.165,0-.33.033-.461.033-1.386,0-1.682-.527-1.682-1.352v-.269c.131-1.947.2-4.717.263-7.157-3.3,3.192-7.348,5.506-11.774,6.728-.066,0-.1.033-.164.033-.182,0-.329-.148-.33-.33.001-.165.089-.317.231-.4,3.871-2.484,7.176-5.755,9.7-9.6h-1.582v.56c0,.89-.89,1.088-2.243,1.219-.23.027-.461.039-.692.034-.825,0-1.386-.165-1.386-.857v-.1c.166-2.276.264-4.781.264-6.892.053-1.47-.058-2.941-.33-4.386-.057-.171-.091-.349-.1-.529,0-.164.067-.231.2-.231.113.009.224.032.331.067,1.352.4,4.385,1.485,4.385,1.485h3.594c0-.957-.033-1.88-.066-2.672h-7.288c-1.106-.038-2.214.05-3.3.263-.255.075-.525-.054-.626-.3-.151-.318-.273-.649-.363-.99-.026-.074-.037-.153-.034-.231,0-.066.034-.1.132-.1.089-.002.178.009.264.033,1.286.301,2.603.445,3.924.428h7.255c-.033-1.155-.132-2.045-.2-2.6-.066-.463-.132-.726-.132-.891,0-.131.067-.164.231-.164.122-.003.244.008.364.033,1.451.165,3.4.4,5.012.724.495.1.725.364.725.627,0,.231-.2.494-.66.594-.791.2-.99.363-.99.824.005.286-.006.573-.033.858h5.706c.269.038.536-.078.692-.3.5-.593,1.254-1.517,1.815-2.176.063-.111.174-.185.3-.2.151.023.291.093.4.2,1.082.806,2.117,1.674,3.1,2.6.126.111.208.264.231.43,0,.164-.132.329-.528.329h-11.709c0,.858,0,1.748-.033,2.672h3.563c.225.005.445-.065.626-.2.462-.428.99-.924,1.485-1.352.2-.164.428-.164.757,0,.627.33,2.277,1.352,2.9,1.815.193.128.325.331.363.56,0,.2-.132.4-.428.56-.494.263-.693.428-.693.858v1.747c0,1.815.033,4.156.067,5.773v.033c0,.956-1.156,1.154-2.177,1.22-.274.027-.549.038-.824.033-.759,0-1.386-.132-1.386-.792v-.066c-.005-.187.006-.375.033-.56h-3.033c2.87,3.529,6.662,4.715,11.378,5.045.264.033.4.2.4.364-.02.177-.135.329-.3.395-1.373.583-2.312,1.877-2.44,3.364m-14.48-17.89h-4.023c-.033.89-.033,1.847-.067,3.166h4.123c0-1.188,0-2.111-.034-3.166m-4.089,4.056c0,1.253,0,2.638.034,3.793h4.055c.034-1.253.034-2.573.034-3.793h-4.123Zm12.632-1.978c0-.791,0-1.451-.033-2.078h-4.324c0,1.088-.033,2.011-.033,3.166h4.386l.004-1.088Zm-4.386,1.979v3.793h4.32c.034-1.188.067-2.54.067-3.793h-4.387Z"/><path id="_パス_108" class="cls-1" d="m43.019,47.521h-.462c-.363,0-.495.165-.758.428-2.735,2.468-5.929,4.373-9.4,5.607-.051.027-.108.038-.165.033-.154.005-.285-.11-.3-.263-.002-.13.06-.253.165-.33,3.825-3.5,5.409-6.827,5.837-8.278.066-.263.2-.363.33-.363.113.023.223.056.33.1,1.582.593,3.3,1.286,4.518,1.847.462.2.693.494.693.757s-.263.462-.791.462m17.717-16.027h-23.514c-1.106-.038-2.214.05-3.3.263-.255.075-.525-.054-.626-.3-.151-.318-.273-.65-.363-.99-.026-.075-.037-.153-.034-.232,0-.066.034-.1.133-.1.089-.002.177.01.263.034,1.286.302,2.603.446,3.924.429h7.222c.034-.694.067-1.253.067-1.715.011-.498-.033-.996-.133-1.484-.074-.293-.13-.591-.165-.891,0-.131.067-.164.2-.164.1,0,.232.033.429.033,1.683.171,3.068.371,4.518.631.5.1.726.363.726.627s-.2.527-.66.626c-.528.132-.759.232-.792.693-.033.594-.033.956-.033,1.65h6.134c.269.038.536-.078.693-.3.494-.593,1.253-1.516,1.815-2.176.063-.111.174-.185.3-.2.151.023.291.093.4.2,1.085.805,2.12,1.676,3.1,2.606.126.11.208.262.231.428,0,.165-.132.331-.528.331m-3.5,4.683c-.463.231-.66.263-.66,1.121,0,1.418.066,3.068.1,4.75v.301c0,.956-.231,1.352-2.276,1.516-.231,0-.429.033-.66.033-.757,0-1.418-.164-1.418-1.055v-.334h-2.9c0,3.1,0,6.4.066,9.1v.1c0,1.814-.858,3.331-4.88,3.759-.1,0-.2.033-.264.033-.33,0-.428-.132-.494-.461-.33-2.308-.529-2.837-3.629-3.793-.172-.045-.301-.188-.329-.363,0-.131.132-.263.363-.263h.034c1.516.132,3.33.263,4.088.263.627,0,.825-.4.825-.89.066-2.407.066-4.65,0-7.486h-3.925v.2c0,.825-.263,1.253-2.341,1.418-.231,0-.428.034-.659.034-.725,0-1.385-.2-1.385-1.123v-.066c.066-2.374.165-4.782.165-6.563.027-.86-.017-1.72-.132-2.572-.054-.261-.088-.526-.1-.792,0-.263.067-.363.231-.363.148.027.292.071.429.132,1.187.494,4.254,1.88,4.254,1.88h9.762c.362,0,.495-.033.66-.2.428-.461,1.088-1.154,1.549-1.549.231-.231.462-.231.858,0,.965.543,1.899,1.137,2.8,1.781.263.157.444.422.495.724,0,.265-.165.5-.626.726m-4.852-.626h-11.18c-.033,1.188-.066,2.244-.066,3.365,0,.857,0,1.714.066,2.737h11.148c.033-.957.066-1.88.066-2.8,0-1.188-.033-2.308-.033-3.3m5.342,17.611c-.911-.005-1.719-.588-2.011-1.451-.86-2.461-2.52-4.563-4.716-5.969-.119-.068-.194-.193-.2-.33,0-.164.133-.3.364-.3h.1c3.726.66,7.123,1.419,8.541,3.991.266.474.413,1.006.428,1.55-.021,1.375-1.131,2.485-2.506,2.506"/><path id="_パス_109" class="cls-1" d="m92.303,30.008c-.561.363-.66.3-.66,1.22-.033,2.408-.067,5.739-.067,9.268,0,4.616.067,9.629.165,13.422v.1c0,1.055-.527,1.32-2.143,1.418h-.49c-.924,0-1.551-.2-1.551-1.22v-.825h-18.27v.529c0,1.055-.363,1.484-2.111,1.582h-.468c-1.055,0-1.649-.231-1.649-1.219v-.167c.231-5.376.363-12.8.363-18.435.088-2.685,0-5.373-.263-8.047-.104-.298-.172-.608-.2-.923,0-.2.066-.264.2-.264.159.022.314.066.461.132,1.847.759,4.123,1.748,4.123,1.748h16.95c.364,0,.463-.033.627-.2.231-.231,1.122-1.088,1.649-1.582.099-.095.227-.153.364-.165.164.02.322.076.461.165.912.592,1.792,1.231,2.639,1.913.255.16.424.426.461.724,0,.264-.165.529-.593.825m-4.716-.792h-18.335c-.131,6.926-.131,14.742,0,23.283h18.336c.131-7.387.131-15.8,0-23.283m-.56,19.854h-13.159c-1.106-.038-2.214.05-3.3.263-.255.076-.526-.054-.627-.3-.151-.318-.272-.649-.362-.99-.025-.074-.036-.153-.033-.231,0-.066.033-.1.131-.1.089-.002.177.009.263.033,1.286.301,2.604.445,3.925.428h1.979c.033-1.814.1-4.88.1-7.816h-.461c-1.111-.014-2.219.108-3.3.363h-.1c-.24-.015-.448-.173-.528-.4-.152-.295-.274-.605-.363-.924-.025-.074-.036-.153-.033-.231,0-.066.033-.1.132-.1.089-.002.177.01.263.033,1.289.278,2.607.4,3.925.363h.461c0-2.341-.033-4.551-.1-5.837h-1.583c-1.106-.038-2.214.051-3.3.263-.255.076-.525-.054-.626-.3-.151-.318-.273-.65-.363-.99-.026-.075-.037-.153-.034-.232,0-.066.034-.1.132-.1.089-.002.178.009.264.033,1.286.302,2.603.446,3.924.429h6.761c.27.044.54-.073.693-.3.527-.659.989-1.253,1.517-1.912.063-.111.174-.185.3-.2.151.023.291.093.4.2.971.723,1.896,1.504,2.77,2.341.127.11.209.262.231.428,0,.164-.132.33-.528.33h-6.53c-.033,1.22-.033,3.429-.033,5.837h.428c.241.028.479-.072.627-.264.461-.593.99-1.252,1.549-1.913.064-.081.161-.129.264-.131.122.005.238.051.33.131.825.661,1.649,1.418,2.737,2.441.3.264.2.627-.3.627h-5.639c0,2.968,0,6.035.033,7.816h1.781c.27.044.54-.073.693-.3.329-.428.89-1.121,1.352-1.715-.552.001-1.065-.286-1.352-.757-.626-1.055.165-2.177-1.451-3.628-.105-.069-.177-.177-.2-.3,0-.131.1-.2.263-.2h.132c2.176.33,3.727,1.22,4.122,2.7.039.162.061.328.067.495.007.538-.253,1.044-.693,1.352.758.627,1.913,1.65,2.737,2.473.128.123.209.286.231.462,0,.164-.131.3-.527.3"/><path id="_パス_110" class="cls-1" d="m125.538,37.494c-1.088.594-1.516,1.023-1.747,3.133-.033.2-.1.462-.331.462-.082.005-.164-.018-.231-.066-3.53-1.976-5.978-5.443-6.657-9.431-.627.231-.693.395-.792.626-.951,2.516-2.462,4.783-4.419,6.629,1.114.259,2.256.381,3.4.362h.2c.23.019.454-.08.594-.263.428-.594.792-1.154,1.319-1.814.132-.2.364-.2.594,0,.918.712,1.798,1.471,2.637,2.275.3.264.2.627-.3.627h-5.046c-1.018-.04-2.038.048-3.034.264-.255.075-.525-.055-.626-.3-.1-.2-.2-.429-.3-.66-1.405,1.146-2.987,2.058-4.683,2.7-.052.024-.108.035-.165.033-.144.002-.261-.113-.263-.257,0-.002,0-.005,0-.007.013-.126.071-.243.164-.33,2.139-1.814,3.899-4.033,5.178-6.53-.229.227-.536.356-.858.363-.451.004-.84-.315-.924-.758-.027-.108-.038-.219-.033-.33,0-.363.1-.725.1-1.088.003-.205-.042-.409-.132-.593-.469.727-.987,1.421-1.55,2.078,1.023.659,1.616,1.253,1.715,2.209v.2c.052.693-.468,1.297-1.16,1.348-.031.002-.062.003-.093.004-.542.025-1.021-.353-1.123-.886-.028-.097-.04-.199-.034-.3,0-.495.2-.923.2-1.352.004-.185-.042-.367-.131-.529-.688.695-1.439,1.324-2.243,1.88-.033.033-.066.033-.131.033-.142-.009-.255-.121-.265-.263-.005-.057.006-.114.033-.165,1.368-2.167,2.381-4.538,3-7.025-.135.075-.279.131-.429.166-.726.2-.759.231-.924.56-1.235,2.244-2.635,4.394-4.189,6.431,2.738,2.637,4.189,5.079,4.189,7.585,0,.164-.033.329-.033.494-.044,2.003-1.519,3.686-3.5,3.991-.098.024-.199.035-.3.033-.231,0-.263-.132-.3-.461-.165-1.551-.263-2.308-1.22-2.771.033,2.737.066,5.507.1,8.244,0,1.023-.395,1.385-2.011,1.451h-.56c-.923,0-1.287-.2-1.287-1.055v-.1c.132-5.112.231-12.136.231-17.743,0-4.385-.066-7.881-.2-8.9-.033-.461-.1-.725-.1-.923,0-.165.066-.231.165-.231.146.031.29.075.429.131,1.78.726,3.66,1.517,3.66,1.517h.99c.363,0,.429-.1.66-.33.329-.33.724-.725,1.154-1.121.3-.3.428-.3.825,0,.846.587,1.655,1.226,2.421,1.915.158.116.292.262.395.428.17-.682.281-1.377.331-2.078.066-.4,0-.528.132-.528.078-.003.157.008.231.034,1.286.2,2.572.395,4.089.659.363.067.527.264.527.429,0,.231-.2.428-.56.494-.594.1-.693.1-.858.429-.231.461-.495.923-.759,1.385h1.023c.207.014.41-.058.561-.2l1.253-1.253c.086-.093.203-.152.329-.165.167.01.327.067.462.165.679.416,1.329.878,1.944,1.384-.132-.923-.232-1.913-.3-2.9,0-.264.1-.4.231-.4.165,0,.33.131.4.4.759,3.132,1.582,5.441,3.1,7.058.526-1.245.934-2.537,1.219-3.858h-1.055c-.474,0-.943.09-1.384.264-.255.075-.525-.054-.627-.3-.151-.318-.273-.649-.363-.99-.025-.074-.036-.153-.033-.231,0-.067.033-.1.132-.1.089-.002.177.01.263.033.641.256,1.321.401,2.011.429h.33c.262.052.531-.051.693-.264.33-.362.693-.758,1.055-1.187.132-.132.231-.2.33-.2.162.016.313.086.429.2.805.548,1.576,1.145,2.309,1.786.329.3.527.56.527.791,0,.33-.4.594-1.22.725-.494.067-.56.231-.89.594-.951,1.05-1.976,2.031-3.067,2.935,1.32,1.187,3.265,1.681,5.243,2.176.143.006.257.12.265.263-.023.193-.15.357-.331.428m-24.4-.461c.653-2.617,1.149-5.271,1.485-7.948h-1.815c-.1,5.079-.131,10.553-.1,16.095h.3c.759,0,1.32-.2,1.518-.792.154-.547.221-1.114.2-1.682.018-2.002-.531-3.969-1.584-5.672m10.718,10.751h-.33c-.363,0-.461.033-.792.461-1.859,2.355-4.354,4.129-7.189,5.112-.052.024-.108.035-.165.033-.163.018-.311-.1-.33-.263.004-.087.039-.169.1-.231,2.004-1.949,3.518-4.345,4.418-6.992.1-.428.067-.792.364-.792.068-.005.137.006.2.033,1.549.463,2.7.957,3.891,1.386.428.165.659.461.659.724s-.263.529-.824.529m12.433-3.859h-6.826c-.033.725-.033,1.748-.033,2.869,0,1.551,0,3.265.033,4.75v.231c0,2.176-.528,3.166-4.056,3.66-.263.033-.462.066-.594.066-.329,0-.4-.164-.428-.593-.231-2.044-.429-2.374-3-3.363-.151-.079-.251-.23-.263-.4.002-.149.125-.267.273-.265.009,0,.018,0,.027.002h.033c1.22.066,2.308.164,3.3.164.66,0,.693-.231.725-.825.033-.692.033-1.615.033-2.572,0-1.352,0-2.771-.033-3.727h-2.638c-1.106-.038-2.214.05-3.3.264-.255.075-.525-.054-.626-.3-.151-.318-.273-.649-.363-.99-.026-.074-.037-.153-.034-.231,0-.067.034-.1.132-.1.089-.002.178.009.264.033,1.286.302,2.603.446,3.924.429h7.882c.27.044.54-.073.693-.3.56-.692.923-1.253,1.516-1.913.063-.111.174-.185.3-.2.151.023.291.093.4.2,1.121.825,1.946,1.485,2.967,2.342.126.11.208.262.232.428,0,.2-.132.33-.529.33m-14.103-13.112c-.171.356-.37.698-.594,1.023.89.362,1.781,1.055,1.847,1.946v.263c.424-1.046.755-2.128.989-3.232h-2.242Zm12.763,21.667c-.945-.062-1.73-.752-1.913-1.681-.56-1.65-.759-3.232-2.8-4.749-.165-.132-.231-.231-.231-.363,0-.165.164-.3.4-.3.078-.003.157.008.231.033,2.737.791,5.045,1.648,5.936,3.528.211.432.324.905.33,1.385.057,1.126-.809,2.085-1.934,2.142-.004,0-.008,0-.012,0"/><path id="_パス_111" class="cls-1" d="m152.875,35.944c-4.056,8.574-9.927,14.775-20.81,18.435-.242.096-.499.152-.759.165q-.066,0-.066-.033c0-.067.2-.232.627-.495,8.838-5.31,14.577-12.7,17.017-20.183.052-.149.086-.304.1-.462,0-.1-.033-.132-.2-.132-.154-.002-.309.009-.461.033-4.75.594-7.488,1.055-12.533,2.012-1.055.2-1.22.99-2.408,1.088h-.066c-1.187,0-3-2.737-3-4.55-.007-.155.005-.31.033-.463.132-.659.429-.724.725-.2.594,1.055,1.418,1.287,2.771,1.287.363,0,.725,0,1.155-.034,3.364-.164,8.574-.592,12.993-1.022,1.65-.165,1.748-.956,2.606-.956,1.55,0,4.156,2.374,4.156,3.429v.1c-.166.989-1.156.461-1.88,1.979"/><path id="_パス_112" class="cls-1" d="m178.473,41.584c-.2.007-.4-.015-.593-.066-1.542-.382-3.128-.559-4.716-.528.2,7.684.66,9.365.66,10.619.005.177-.006.353-.033.528-.2,1.583-1.121,2.771-2.243,2.9h-.2c-.868-.004-1.619-.605-1.813-1.451-.264-.89-1.517-1.814-3.727-2.869-.3-.132-.461-.231-.461-.3,0-.034.066-.067.231-.067.1,0,.2.034.363.034,1.55.165,2.8.264,4.122.33h.2c.3,0,.364-.066.364-.364v-.2c-.1-2.539-.132-3.3-.3-6.563-2.691,4.093-6.824,7.024-11.576,8.212-.12.03-.241.052-.363.067-.3,0-.231-.2.2-.5,3.563-2.472,7.255-6.034,9.135-9.959-1.255.156-2.499.387-3.726.693-.956.2-1.286.66-1.912.66-1.055,0-2.243-1.681-2.243-3.1,0-.213.034-.424.1-.626.066-.232.131-.331.2-.331s.131.1.263.265c.648.651,1.56.967,2.472.857.221.005.442-.006.661-.033,1.781-.132,3.892-.363,6.6-.626-.067-1.023-.1-2.012-.231-3.133-.13-.891-.882-1.56-1.782-1.584-.263-.033-.4-.1-.4-.231,0-.1.165-.263.428-.428.523-.291,1.115-.436,1.713-.418,1.682,0,3.463.89,3.661,1.88,0,.066.034.132.034.2,0,.529-.5.627-.5,1.419,0,.857.034,1.253.067,2.144.923-.033,1.154-.033,2.111-.066.825-.034.989-.4,1.616-.4h.2c1.946.263,2.737,1.219,2.737,1.946-.038.643-.59,1.134-1.234,1.096-.029-.002-.057-.004-.085-.008"/><path id="_パス_113" class="cls-1" d="m210.522,42.573c-1.055.033-1.913.066-2.738.066-1.286,0-2.539-.033-4.55-.033-2.408,0-5.837.033-11.543.231-1.781.067-1.615.759-2.737.792h-.032c-1.649,0-3.166-2.637-3.166-4.65-.013-.397.066-.792.231-1.154.165-.4.3-.594.461-.594.099,0,.233.165.4.494.56,1.188,2.044,1.419,3.99,1.419h2.77c5.837,0,8.871-.1,16.391-.263h.264c2.242,0,3.1.757,3.1,1.582,0,.99-1.22,2.045-2.836,2.111"/><path id="_パス_114" class="cls-1" d="m240.078,40.1c-4.189,7.487-9.8,12.2-19.985,15.467-.051.026-.109.038-.166.033-.108.032-.218.055-.33.067-.1,0-.131-.033-.131-.067,0-.1.164-.263.494-.461,7.652-4.485,13.522-10.948,15.665-16.621.054-.137.088-.281.1-.428,0-.2-.131-.263-.527-.263h-.165c-4.106.246-8.18.875-12.169,1.878-.99.2-.957.561-1.88.561h-.231c-1.353-.1-2.968-2.308-2.968-3.891-.007-.143.004-.287.033-.428.066-.364.166-.529.3-.529.1,0,.231.1.4.3.792.857,1.584.988,3.3.988h1.023c2.573-.033,7.057-.4,12.3-.889,1.516-.132,1.516-.923,2.505-.923,1.286,0,4.288,2.308,4.288,3.4v.033c-.066,1.121-1.286.792-1.846,1.781m-5.706-7.915c-2.946.328-5.907.504-8.871.528h-.533c-2.21-.033-3.859-1.485-3.859-3.067v-.1c.034-.331.034-.5.1-.5s.2.132.428.331c.725.626,1.847.791,3.529.791h.528c1.932-.074,3.858-.25,5.771-.528,1.353-.2,1.452-.594,2.738-.759.164-.027.329-.038.495-.033,1.385,0,2.243.759,2.243,1.584,0,.724-.758,1.516-2.573,1.747"/><path id="_パス_115" class="cls-1" d="m267.898,52.401c-1.106-.022-2.018-.875-2.111-1.978-.23-1.099-.573-2.171-1.023-3.2-5.13,2.043-10.426,3.643-15.829,4.782-1.286.3-1.32,1.023-2.276,1.023-1.452,0-3-2.539-3-4.617-.006-.468.097-.931.3-1.352.165-.33.3-.461.429-.461.165,0,.3.131.428.428.4.956.99,1.121,1.946,1.121.3,0,.66-.033,1.055-.033.495-.033,1.023-.033,1.616-.067,2.069-4.969,3.734-10.098,4.976-15.336.102-.455.157-.919.165-1.385.082-.832-.298-1.642-.989-2.111-.232-.132-.363-.231-.363-.33s.165-.2.495-.329c.361-.122.74-.177,1.121-.165,2.473,0,5.409,2.276,5.409,3.759v.164c-.132.792-1.023.66-1.485,1.847-2.084,4.95-4.823,9.598-8.145,13.818,4.055-.263,9.5-.858,13.851-1.451-.975-2.093-2.229-4.044-3.728-5.8-.263-.3-.4-.461-.4-.528,0-.033.034-.033.067-.033.217.037.428.105.626.2,4.683,1.913,8.245,4.981,9.168,8.344.09.333.135.677.132,1.022.076,1.398-.996,2.593-2.394,2.669-.016,0-.032.002-.047.002"/></g></g><path id="_パス_116" class="cls-2" d="m24.164,4.171c-.4.156-.6.6-.725,1.252-.015.114-.057.157-.143.157-.029.001-.058-.004-.085-.015-2.245-.743-4.1-2.353-5.153-4.47-.015.014-.029.043-.043.057-1.435,2.263-3.672,3.901-6.263,4.584-.037.011-.076.015-.114.014-.086,0-.143-.042-.143-.085s.057-.128.171-.185c3.047-1.623,4.755-4.285,4.969-5.253.043-.185.043-.227.1-.227.073.006.144.02.214.042.527.114,1.054.256,1.665.427.157.042.243.142.243.227s-.085.171-.285.185c-.102-.004-.204.01-.3.043,1.489,1.702,3.582,2.758,5.836,2.946.143.015.214.072.214.129s-.057.128-.157.17m-.612,3.374h-5.423c-.882,1.103-1.863,2.123-2.932,3.046,1.808-.028,4.057-.156,5.58-.342-.327-.522-.735-.988-1.21-1.381-.07-.051-.116-.127-.128-.213,0-.055.044-.1.099-.101.005,0,.009,0,.014,0,.059.004.117.018.171.042,1.31.584,2.961,1.581,3.2,2.7.016.089.025.179.028.27.034.463-.314.865-.777.899-.008,0-.015.001-.023.001-.318-.013-.59-.233-.669-.541-.132-.455-.303-.899-.512-1.324-2.348.6-4.73,1.061-7.132,1.38-.213.028-.228.113-.27.328-.043.185-.128.284-.213.284s-.186-.1-.271-.313c-.156-.413-.37-1.125-.5-1.551-.014-.042-.023-.085-.029-.128,0-.057.029-.072.113-.072h.1c.62.06,1.242.084,1.865.072.621-.951,1.114-1.981,1.466-3.061h-2.59c-.41-.009-.82.019-1.225.085-.024.004-.048.009-.071.015-.071,0-.114-.043-.156-.114-.055-.12-.102-.244-.142-.37-.004-.024-.009-.048-.015-.071,0-.043.015-.057.057-.057.034.006.068.016.1.029.476.11.963.163,1.452.156h7.644c.093-.001.182-.043.242-.114.242-.313.484-.626.712-.911.021-.037.058-.063.1-.071.053.009.103.034.142.071.37.285,1,.812,1.324,1.082.047.04.078.096.086.157,0,.056-.057.113-.214.113m-2.989-2.321h-4.4c-.414-.01-.829.019-1.238.085-.024.004-.048.009-.071.015-.072,0-.114-.043-.157-.114-.067-.115-.115-.24-.142-.37-.011-.027-.016-.056-.014-.085-.003-.021.012-.04.032-.043.003,0,.006,0,.01,0,.039.006.077.016.114.029.476.11.964.163,1.453.156h2.178c.096.008.191-.029.256-.1.157-.2.413-.555.612-.854.043-.043.072-.072.114-.072.054.009.103.034.142.072.27.227.911.74,1.21,1.025.047.04.078.095.086.156,0,.057-.071.1-.185.1"/><path id="_パス_117" class="cls-2" d="m35.47,7.616c-1.136.975-2.339,1.87-3.6,2.676-.129.048-.211.176-.2.313-.015.356-.257.4-.384.128-.172-.413-.456-1.181-.571-1.566-.013-.042-.022-.085-.028-.129,0-.086.085-.042.227-.071.441-.1.926-.228,1.41-.384.014-.954.029-2.093.029-3.217v-1.21h-.086c-.344-.004-.687.025-1.025.085-.024.003-.048.008-.071.014-.072,0-.115-.042-.157-.113-.065-.111-.113-.231-.142-.356-.004-.024-.009-.048-.015-.072,0-.042.015-.057.057-.057.034-.001.068.004.1.015.408.109.83.161,1.252.156h.086c.035-1.112-.003-2.224-.114-3.331-.015-.086-.043-.157-.043-.2s.028-.071.113-.071h.1c.384.043,1,.114,1.494.214.172.042.242.114.242.2s-.071.186-.227.228-.271.114-.271.285c0,.641-.015,1.58-.015,2.676.074-.012.141-.053.186-.114.157-.213.37-.512.527-.74.057-.086.128-.086.213,0,.242.242.683.712.87.939.035.041.06.09.071.143,0,.057-.058.1-.185.1h-1.684c0,.513-.014,1.054-.014,1.609,0,.782.014,1.594.028,2.362.569-.228,1.139-.47,1.666-.74.011-.011.027-.016.042-.014.081,0,.149.061.156.142.001.038-.014.074-.042.1m7.815-1.552h-5c-.261.429-.572.826-.926,1.182h3.9c.084-.005.162-.047.213-.114.142-.157.286-.3.441-.47.057-.057.1-.085.142-.085.063.007.123.032.172.072.256.17.6.4.854.612.076.053.128.135.142.227,0,.072-.057.142-.185.214-.3.156-.313.242-.327.384-.042.655-.271,2.435-.413,3.132-.17.826-.483,1.225-1.579,1.367-.043,0-.086.014-.114.014-.143,0-.157-.057-.172-.2-.071-.641-.113-.741-1.238-1.125-.074-.029-.127-.093-.142-.171,0-.042.042-.085.128-.085h.053c.513.057.968.1,1.339.128.043,0,.085.014.128.014.213,0,.3-.085.384-.356.247-1.061.399-2.143.455-3.231h-.5c-1.125,2.605-2.875,3.858-5.766,4.684h-.04c-.062.001-.113-.048-.114-.11,0-.001,0-.003,0-.004-.003-.045.019-.089.057-.114,2.022-.88,3.656-2.463,4.6-4.456h-.743c-.903,1.498-2.37,2.571-4.072,2.975h-.043c-.049.006-.094-.029-.1-.079,0-.007,0-.014,0-.021.004-.051.03-.098.071-.128,1.168-.663,2.152-1.607,2.862-2.747h-.712c-.689.621-1.478,1.122-2.334,1.481-.026.015-.056.025-.086.028-.062.001-.113-.048-.114-.11,0-.001,0-.003,0-.004.006-.058.038-.11.086-.142.98-.721,1.772-1.669,2.306-2.762h-.555c-.387-.016-.774.013-1.154.086-.027.011-.056.016-.085.014-.074,0-.141-.044-.17-.113-.067-.115-.115-.241-.142-.371-.011-.022-.016-.046-.015-.071,0-.043.015-.057.043-.057.039.004.077.013.114.028.461.112.935.165,1.41.156h5.01c.096.015.192-.03.242-.114.157-.228.384-.527.571-.755.071-.086.156-.086.255,0,.34.29.663.599.968.926.047.04.077.095.085.156,0,.072-.057.114-.185.114m-1.067-4.84c-.229.143-.271.171-.286.314-.057.962-.057,1.927,0,2.889v.143c0,.428-.143.527-.655.57h-.129c-.4,0-.5-.129-.5-.5h-3.261v.056c0,.37-.141.484-.64.527-.071,0-.142.015-.214.015-.3,0-.441-.1-.441-.413v-.084c.057-.755.1-1.751.1-2.59.023-.544-.015-1.088-.113-1.623-.024-.083-.038-.169-.043-.256,0-.057.015-.086.057-.086.055.004.108.019.157.043.3.114,1.3.584,1.3.584h2.832c.088.007.174-.03.229-.1l.441-.484c.057-.057.1-.085.142-.085.063.005.122.03.17.071.242.156.626.413.855.584.084.071.169.143.169.228,0,.056-.042.128-.169.2m-1.524.783c0-.342,0-.641-.015-.869h-3.3c0,.328-.014.8-.014,1.324h3.331l-.002-.455Zm-3.331.783c0,.47,0,1,.014,1.523h3.289c.014-.5.028-1.039.028-1.523h-3.331Z"/><path id="_パス_118" class="cls-2" d="m4.04,12.498L.453,6.292,4.04.099l.583.243L1.364,6.292l3.26,5.965-.584.241Z"/><path id="_パス_119" class="cls-2" d="m51.513,12.498l-.584-.242,3.3-5.965-3.3-5.951.584-.242,3.587,6.193-3.587,6.207Z"/></g></g></svg>